<svg xmlns="http://www.w3.org/2000/svg" viewBox="0 0 117 26"><path d="M 1.412 17.375 L 11.078 17.375 L 11.078 20.423 L 1.412 20.423 Z M 14.39 6.707 L 25.436 6.707 L 25.436 9.755 L 14.39 9.755 Z M 8.591 7.647 L 16.792 0.103 L 19.135 2.259 L 10.935 9.802 Z" fill="white"/><path d="M 8.642 15.267 L 2.343 9.473 L 0 11.628 L 6.298 17.422 Z M 16.927 19.53 L 10.288 25.637 L 7.944 23.482 L 14.584 17.375 Z M 16.876 11.911 L 24.296 18.736 L 26.639 16.58 L 19.219 9.755 Z M 8.591 4.421 L 8.591 11.787 L 5.277 11.787 L 5.277 4.421 Z" fill="white"/><path d="M 20.19 15.089 L 20.19 24.233 L 16.877 24.233 L 16.877 15.089 Z" fill="white"/><path d="M 34.859 20.956 L 38.841 20.956 C 41.093 20.988 42.786 20.872 43.99 20.396 C 45.211 19.904 46.071 19.086 46.569 17.942 C 47.085 16.799 47.343 15.147 47.343 12.987 C 47.343 10.986 47.128 9.326 46.698 8.198 C 46.268 7.071 45.538 6.237 44.506 5.697 C 43.491 5.141 42.047 4.776 40.172 4.601 C 39.341 4.523 38.506 4.483 37.671 4.482 C 36.862 4.466 35.903 4.482 34.859 4.482 Z M 42.726 18.109 C 42.107 18.474 41.247 18.689 40.147 18.752 C 39.82 18.784 39.468 18.792 39.089 18.776 C 38.633 18.755 38.178 18.732 37.722 18.705 L 37.722 6.865 C 38.444 6.865 39.236 6.905 40.095 6.984 C 41.247 7.111 42.133 7.366 42.752 7.747 C 43.371 8.128 43.809 8.715 44.068 9.509 C 44.325 10.287 44.454 11.383 44.454 12.797 C 44.454 14.29 44.317 15.457 44.042 16.299 C 43.784 17.124 43.345 17.728 42.726 18.109 Z M 49.813 20.753 C 50.466 20.976 51.386 21.087 52.573 21.087 C 53.622 21.087 54.421 20.968 54.972 20.73 C 55.522 20.475 56.029 20.015 56.493 19.348 L 56.7 19.348 L 56.7 20.968 L 59.227 20.968 L 59.227 12.535 C 59.227 11.375 59.064 10.486 58.737 9.867 C 58.411 9.231 57.852 8.787 57.061 8.533 C 56.287 8.263 55.187 8.128 53.759 8.128 C 52.349 8.128 51.257 8.247 50.483 8.485 C 49.727 8.707 49.194 9.096 48.884 9.652 C 48.575 10.192 48.367 10.972 48.367 11.987 L 51.231 11.987 C 51.231 11.32 51.404 10.867 51.747 10.629 C 52.108 10.391 52.779 10.271 53.759 10.271 C 54.499 10.271 55.075 10.343 55.487 10.486 C 55.9 10.629 56.192 10.859 56.364 11.177 C 56.536 11.495 56.622 11.947 56.622 12.535 L 56.622 12.868 L 54.43 12.868 C 52.762 12.868 51.472 13.003 50.561 13.273 C 49.649 13.528 49.005 13.98 48.626 14.631 C 48.248 15.266 48.059 16.164 48.059 17.323 C 48.059 18.307 48.188 19.07 48.446 19.61 C 48.721 20.15 49.177 20.531 49.813 20.753 Z M 55.204 18.538 C 54.722 18.776 54.026 18.895 53.114 18.895 C 52.22 18.895 51.61 18.768 51.283 18.514 C 50.956 18.26 50.793 17.792 50.793 17.109 C 50.793 16.553 50.888 16.132 51.077 15.846 C 51.266 15.544 51.575 15.33 52.005 15.203 C 52.453 15.076 53.08 15.004 53.888 14.988 L 56.596 14.964 C 56.562 15.997 56.442 16.791 56.236 17.347 C 56.029 17.903 55.685 18.3 55.204 18.538 Z M 82.403 20.515 C 83.28 20.896 84.527 21.087 86.143 21.087 C 87.742 21.087 88.98 20.896 89.857 20.515 C 90.734 20.118 91.353 19.467 91.714 18.562 C 92.093 17.64 92.282 16.33 92.282 14.631 C 92.282 12.916 92.093 11.598 91.714 10.676 C 91.353 9.755 90.734 9.104 89.857 8.723 C 88.997 8.326 87.759 8.128 86.143 8.128 C 84.527 8.128 83.28 8.326 82.403 8.723 C 81.526 9.104 80.907 9.755 80.546 10.676 C 80.185 11.598 80.004 12.916 80.004 14.631 C 80.004 16.33 80.185 17.64 80.546 18.562 C 80.907 19.483 81.526 20.134 82.403 20.515 Z M 88.181 18.514 C 87.716 18.768 87.037 18.895 86.143 18.895 C 85.249 18.895 84.561 18.768 84.08 18.514 C 83.598 18.26 83.254 17.831 83.048 17.228 C 82.842 16.624 82.738 15.759 82.738 14.631 C 82.738 13.488 82.842 12.614 83.048 12.011 C 83.254 11.391 83.598 10.954 84.08 10.7 C 84.561 10.43 85.249 10.295 86.143 10.295 C 87.037 10.295 87.716 10.43 88.181 10.7 C 88.662 10.955 89.006 11.391 89.212 12.011 C 89.419 12.614 89.522 13.488 89.522 14.631 C 89.522 15.759 89.419 16.624 89.212 17.228 C 89.006 17.831 88.662 18.26 88.181 18.514 Z" fill="white"/><path d="M 93.228 8.245 L 95.988 8.245 L 95.988 10.2 L 96.195 10.2 C 96.625 9.39 97.106 8.842 97.639 8.556 C 98.19 8.27 98.98 8.128 100.012 8.128 C 101.25 8.128 102.205 8.278 102.875 8.58 C 103.546 8.866 104.027 9.35 104.32 10.033 C 104.612 10.716 104.758 11.693 104.758 12.963 L 104.758 20.968 L 101.998 20.968 L 101.998 12.916 C 101.998 12.265 101.921 11.756 101.766 11.391 C 101.612 11.026 101.345 10.772 100.967 10.629 C 100.588 10.486 100.047 10.414 99.342 10.414 C 98.465 10.414 97.785 10.534 97.304 10.772 C 96.839 11.01 96.504 11.415 96.298 11.987 C 96.092 12.559 95.988 13.368 95.988 14.416 L 95.988 20.968 L 93.228 20.968 L 93.228 8.245 Z" fill="white"/><path d="M 107.585 20.753 C 108.239 20.976 109.159 21.087 110.345 21.087 C 111.394 21.087 112.194 20.968 112.744 20.73 C 113.294 20.475 113.802 20.015 114.266 19.348 L 114.472 19.348 L 114.472 20.968 L 117 20.968 L 117 12.535 C 117 11.375 116.837 10.486 116.51 9.867 C 116.183 9.231 115.624 8.787 114.833 8.533 C 114.059 8.263 112.959 8.128 111.532 8.128 C 110.122 8.128 109.03 8.247 108.256 8.485 C 107.499 8.707 106.966 9.096 106.657 9.652 C 106.347 10.192 106.198 10.876 106.198 11.987 L 109.004 11.987 C 109.004 11.32 109.176 10.867 109.52 10.629 C 109.881 10.391 110.552 10.271 111.532 10.271 C 112.271 10.271 112.847 10.343 113.26 10.486 C 113.673 10.629 113.965 10.859 114.137 11.177 C 114.309 11.495 114.395 11.947 114.395 12.535 L 114.395 12.868 L 112.202 12.868 C 110.534 12.868 109.245 13.003 108.333 13.273 C 107.422 13.528 106.777 13.98 106.399 14.631 C 106.021 15.266 105.831 16.164 105.831 17.323 C 105.831 18.307 105.961 19.07 106.218 19.61 C 106.493 20.15 106.949 20.531 107.585 20.753 Z M 112.976 18.538 C 112.495 18.776 111.798 18.895 110.887 18.895 C 109.993 18.895 109.382 18.768 109.056 18.514 C 108.729 18.26 108.566 17.792 108.566 17.109 C 108.566 16.553 108.66 16.132 108.849 15.846 C 109.038 15.544 109.348 15.33 109.778 15.203 C 110.225 15.076 110.853 15.004 111.661 14.988 L 114.369 14.964 C 114.335 15.997 114.214 16.791 114.008 17.347 C 113.802 17.903 113.458 18.3 112.976 18.538 Z" fill="white"/><path d="M 71.238 8.219 L 68.581 8.219 L 65.972 18.683 L 65.023 18.683 L 62.518 8.219 L 59.908 8.219 L 62.025 18.123 C 62.372 19.748 63.912 20.92 65.701 20.92 L 65.137 22.548 C 64.866 23.195 64.76 23.867 63.392 23.867 L 61.683 23.867 L 61.683 25.931 L 64.85 25.961 C 65.805 25.946 67.006 25.307 67.898 22.548 Z M 75.139 20.569 C 75.747 20.857 76.641 21 77.822 21 L 79.407 21 L 79.407 18.82 L 78.681 18.82 C 77.987 18.82 77.466 18.748 77.118 18.604 C 76.771 18.461 76.537 18.253 76.415 17.982 C 76.311 17.694 76.259 17.287 76.259 16.76 L 76.259 10.34 L 79.407 10.34 L 79.407 8.231 L 76.259 8.231 L 76.259 5.548 L 73.732 5.548 L 73.732 8.231 L 72.485 8.231 L 72.016 10.34 L 73.628 10.34 L 73.628 16.856 C 73.628 17.878 73.732 18.684 73.941 19.275 C 74.149 19.85 74.549 20.281 75.139 20.569 Z" fill="white"/></svg>