<svg width="32" height="32" viewBox="0 0 32 32" fill="none" xmlns="http://www.w3.org/2000/svg">
<g clip-path="url(#clip0_1423_27864)">
<path d="M22.9849 8.69425C23.1028 8.71202 23.1575 8.85067 23.0835 8.94422L22.1942 10.0677C21.1317 11.41 20.5538 13.0717 20.5538 14.7836L20.5538 15.3502C20.5538 15.4699 20.4844 15.5788 20.3759 15.6294L20.0175 15.7967C18.5989 16.4586 17.4586 17.5989 16.7965 19.0177L16.6292 19.3761C16.5786 19.4846 16.4697 19.5539 16.35 19.5539L15.7834 19.5539C14.0715 19.5539 12.4098 20.1319 11.0675 21.1944L9.94422 22.0835C9.85066 22.1576 9.71202 22.1028 9.69425 21.9849L8.97918 17.2378C8.54597 14.3618 7.52825 11.6051 5.98877 9.13754C5.85141 8.91737 5.88407 8.63155 6.06757 8.44806L9.44805 5.06757C9.63155 4.88408 9.91737 4.85141 10.1375 4.98877C12.6051 6.52826 15.3618 7.54598 18.2378 7.97919L22.9849 8.69425Z" fill="#128B58"/>
<path d="M15.7837 21.2282C15.8542 21.2282 15.912 21.2841 15.9144 21.3546L15.9433 22.2111C16.0002 23.8891 16.0569 25.567 16.1135 27.245C16.1237 27.5473 15.7377 27.6819 15.5578 27.4387C14.7853 26.3942 14.0128 25.3497 13.24 24.3053L12.0769 22.7327C12.0244 22.6618 12.0377 22.562 12.1068 22.5073C12.5662 22.1437 13.0766 21.8523 13.6178 21.6401C13.7633 21.5827 13.9114 21.5312 14.0613 21.4858C14.6172 21.3164 15.1983 21.2282 15.7837 21.2282Z" fill="#128B58"/>
<path d="M22.486 15.001V14.9996L22.4356 14.9979C22.32 14.994 22.2284 14.8992 22.2284 14.7836C22.2284 14.1981 22.3166 13.6171 22.486 13.0611C22.5313 12.9112 22.5827 12.7633 22.6401 12.6178L22.6404 12.6174C22.817 12.1672 23.0683 11.713 23.3571 11.3086C23.4537 11.1733 23.6424 11.1487 23.7761 11.2476L25.6006 12.5972C26.52 13.2774 27.4393 13.9575 28.3588 14.6375C28.602 14.8174 28.4675 15.2035 28.1651 15.1933C26.272 15.1293 24.3789 15.0653 22.486 15.001Z" fill="#128B58"/>
<path d="M21.5389 16.9347C21.688 16.8651 21.8655 16.9249 21.9421 17.0706C23.2179 19.4981 24.4937 21.9255 25.7693 24.3531C25.9101 24.6209 25.6209 24.91 25.3531 24.7692C24.4073 24.2721 23.4614 23.775 22.5155 23.278L18.0706 20.9421C17.9249 20.8655 17.8651 20.688 17.9347 20.5389L18.3142 19.7259C18.561 19.1971 18.8951 18.7199 19.3075 18.3075C19.7199 17.8951 20.1973 17.5608 20.7259 17.3142L21.5389 16.9347Z" fill="#128B58"/>
</g>
<defs>
<clipPath id="clip0_1423_27864">
<rect width="32" height="32" fill="white"/>
</clipPath>
</defs>
</svg>
