<?xml version="1.0" encoding="UTF-8" standalone="no"?>
<svg width="100%" height="100%" viewBox="0 0 2000 1112" version="1.1" xmlns="http://www.w3.org/2000/svg" xmlns:xlink="http://www.w3.org/1999/xlink" xml:space="preserve" xmlns:serif="http://www.serif.com/" style="fill-rule:evenodd;clip-rule:evenodd;stroke-linejoin:round;stroke-miterlimit:2;">
    <g transform="matrix(1,0,0,1,-462.187977,-444.444444)">
        <g transform="matrix(1.587302,0,0,1.587302,-4792.948986,-4742.813252)">
            <path d="M3730.7363,3874.9723L4010.7363,3560.9723L4010.7363,3267.9723L4150.7363,3267.9723L4150.7363,3560.9723L3870.7363,3874.9723L3870.7363,3967.9723L3730.7363,3967.9723L3730.7363,3874.9723ZM4233.6662,3467.9723L4290.7363,3467.9723C4445.2725,3467.9723 4570.7363,3579.9936 4570.7363,3717.9723C4570.7363,3855.9511 4445.2725,3967.9723 4290.7363,3967.9723L4010.7363,3967.9723L4010.7363,3874.9723L4150.7363,3717.9723L4150.7363,3874.9723L4290.7363,3874.9723C4368.0044,3874.9723 4430.7363,3804.623 4430.7363,3717.9723C4430.7363,3631.3217 4368.0044,3560.9723 4290.7363,3560.9723L4150.7363,3560.9723L4233.6662,3467.9723ZM3647.8064,3967.9723L3590.7363,3967.9723C3436.2001,3967.9723 3310.7363,3855.9511 3310.7363,3717.9723C3310.7363,3579.9936 3436.2001,3467.9723 3590.7363,3467.9723L3730.7363,3467.9723L3730.7363,3267.9723L3870.7363,3267.9723L3870.7363,3560.9723L3730.7363,3717.9723L3730.7363,3560.9723L3590.7363,3560.9723C3513.4682,3560.9723 3450.7363,3631.3217 3450.7363,3717.9723C3450.7363,3804.623 3513.4682,3874.9723 3590.7363,3874.9723L3730.7363,3874.9723L3647.8064,3967.9723Z" style="fill:white;"/>
        </g>
        <g transform="matrix(1.587302,0,0,1.587302,-9388.712528,-10605.258412)">
            <path d="M6626.0673,7568.3128L6626.0673,7661.3128" style="fill:none;"/>
        </g>
        <g transform="matrix(1.587302,0,0,1.587302,-9388.712528,-10605.258412)">
            <path d="M7046.0673,7254.3128L7046.0673,7144.1104" style="fill:none;"/>
        </g>
    </g>
</svg>
